<?xml version="1.0" encoding="utf-8"?>

<svg xmlns="http://www.w3.org/2000/svg">

  <style>
    :root > svg {
      display:none;
    }
    :root > svg:target {
      display:block;
    }
  </style>

  <svg id="mark-s" viewBox="0 0 32 36">
  <path fill-rule="evenodd" clip-rule="evenodd" d="M32 18c0 2.87-.6 5.59-1.66 8H17c2.46-3.77 5-8.34 5-13A13 13 0 0 0 12.42.45C13.57.15 14.77 0 16 0c8.84 0 16 8.06 16 18zm-14-5a9 9 0 0 0-9-9c-6.65 0-9 8.5-9 14 0 9.94 7.16 18 16 18 4.74 0 9-2.32 11.93-6H9l1.1-1.39C13.62 24.21 18 18.7 18 13z" fill="#7859CF"/>
  </svg>

  <svg id="mark-m" viewBox="0 0 82 36">
  <path d="M74.08 26.34c-1.33 0-2.56-.21-3.7-.63a8.82 8.82 0 0 1-2.95-1.82 8.56 8.56 0 0 1-2.61-6.29 8.62 8.62 0 0 1 2.64-6.29 8.52 8.52 0 0 1 2.95-1.8c1.15-.43 2.4-.65 3.77-.65 1.58 0 3 .27 4.24.8a7.94 7.94 0 0 1 3.1 2.28l-3.02 2.73a5.83 5.83 0 0 0-1.88-1.39 5.52 5.52 0 0 0-4.18-.14 4.5 4.5 0 0 0-2.5 2.5 5.4 5.4 0 0 0-.32 1.96 4.77 4.77 0 0 0 1.32 3.48 4.56 4.56 0 0 0 3.43 1.32c.7 0 1.39-.11 2.06-.34a7 7 0 0 0 2.04-1.2l2.67 3.34a10.9 10.9 0 0 1-3.34 1.58c-1.26.37-2.5.56-3.72.56zm2.86-2.76v-6.34h4.2v6.96l-4.2-.62z" fill="#333"/>
  <path fill-rule="evenodd" clip-rule="evenodd" d="M58 18c0 2.87-.6 5.59-1.66 8H43c2.46-3.77 5-8.34 5-13A13 13 0 0 0 38.42.45C39.57.15 40.77 0 42 0c8.84 0 16 8.06 16 18zm-14-5a9 9 0 0 0-9-9c-6.65 0-9 8.5-9 14 0 9.94 7.16 18 16 18 4.74 0 9-2.32 11.93-6H35l1.1-1.39C39.62 24.21 44 18.7 44 13z" fill="#7859CF"/>
  <path d="M1.85 26V9.2H9.8c1.85 0 3.48.34 4.9 1.03 1.4.69 2.5 1.66 3.28 2.9a8.1 8.1 0 0 1 1.2 4.47c0 1.71-.4 3.2-1.2 4.46a7.86 7.86 0 0 1-3.29 2.9c-1.4.7-3.04 1.04-4.9 1.04H1.86zm4.75-3.8h3c.96 0 1.8-.17 2.5-.52.72-.37 1.28-.9 1.68-1.58.4-.7.6-1.54.6-2.5 0-.98-.2-1.8-.6-2.5-.4-.68-.96-1.2-1.68-1.56A5.32 5.32 0 0 0 9.6 13h-3v9.22z" fill="#333"/>
  </svg>

  <svg id="mark-l" viewBox="0 0 170 36">
  <path d="M140.08 26.34c-1.33 0-2.56-.21-3.7-.63a8.82 8.82 0 0 1-2.95-1.82 8.56 8.56 0 0 1-2.61-6.29 8.62 8.62 0 0 1 2.64-6.29 8.52 8.52 0 0 1 2.95-1.8c1.15-.43 2.4-.65 3.77-.65 1.58 0 3 .27 4.24.8a7.94 7.94 0 0 1 3.1 2.28l-3.02 2.73a5.83 5.83 0 0 0-1.88-1.39 5.52 5.52 0 0 0-4.18-.14 4.5 4.5 0 0 0-2.5 2.5 5.4 5.4 0 0 0-.32 1.96 4.77 4.77 0 0 0 1.32 3.48 4.56 4.56 0 0 0 3.43 1.32c.7 0 1.39-.11 2.06-.34a7 7 0 0 0 2.04-1.2l2.67 3.34a10.9 10.9 0 0 1-3.34 1.58c-1.26.37-2.5.56-3.72.56zm2.86-2.76v-6.34h4.2v6.96l-4.2-.62zm16.16 2.76c-1.34 0-2.58-.22-3.72-.65a9.1 9.1 0 0 1-2.97-1.83 8.56 8.56 0 0 1-2.64-6.26 8.39 8.39 0 0 1 2.64-6.24 8.9 8.9 0 0 1 2.97-1.85c1.14-.43 2.38-.65 3.72-.65 1.36 0 2.6.22 3.72.65a8.63 8.63 0 0 1 0 16.18c-1.12.43-2.36.65-3.72.65zm0-3.94c.64 0 1.23-.11 1.78-.34a4.06 4.06 0 0 0 1.44-.96 5.2 5.2 0 0 0 1.32-3.5 5.08 5.08 0 0 0-1.32-3.48c-.4-.43-.88-.76-1.44-.98a4.8 4.8 0 0 0-3.58 0 4.2 4.2 0 0 0-1.44.98 4.7 4.7 0 0 0-1.3 3.48 5 5 0 0 0 1.3 3.5 4.37 4.37 0 0 0 3.24 1.3z" fill="#333"/>
  <path fill-rule="evenodd" clip-rule="evenodd" d="M124 18c0 2.87-.6 5.59-1.66 8H109c2.46-3.77 5-8.34 5-13A13 13 0 0 0 104.42.45C105.57.15 106.77 0 108 0c8.84 0 16 8.06 16 18zm-14-5a9 9 0 0 0-9-9c-6.65 0-9 8.5-9 14 0 9.94 7.16 18 16 18 4.74 0 9-2.32 11.93-6H101l1.1-1.39c3.52-4.4 7.9-9.91 7.9-15.61z" fill="#7859CF"/>
  <path d="M2.65 26V9.2h7.94c1.86 0 3.5.34 4.9 1.03 1.4.69 2.5 1.66 3.29 2.9a8.1 8.1 0 0 1 1.2 4.47c0 1.71-.4 3.2-1.2 4.46a7.86 7.86 0 0 1-3.29 2.9c-1.4.7-3.04 1.04-4.9 1.04H2.65zm4.75-3.8h3c.96 0 1.8-.17 2.5-.52.72-.37 1.28-.9 1.68-1.58.4-.7.6-1.54.6-2.5 0-.98-.2-1.8-.6-2.5-.4-.68-.96-1.2-1.68-1.56a5.32 5.32 0 0 0-2.5-.55h-3v9.22zM22.96 26V9.2h7.68c1.53 0 2.85.25 3.96.74a5.77 5.77 0 0 1 2.6 2.16c.6.93.9 2.04.9 3.32 0 1.26-.3 2.36-.9 3.28a5.89 5.89 0 0 1-2.6 2.12 9.9 9.9 0 0 1-3.96.72H25.6l2.11-2V26h-4.75zm10.4 0l-4.19-6.12h5.07l4.2 6.12h-5.09zm-5.65-5.95l-2.11-2.19h4.75c1 0 1.73-.21 2.2-.64.5-.44.75-1.04.75-1.8 0-.79-.25-1.4-.74-1.83-.48-.43-1.22-.65-2.2-.65H25.6l2.11-2.18v9.29zM41.21 26V9.2h4.75V26H41.2zm8.6 0V9.2h3.92l9.26 11.18h-1.84V9.2h4.65V26H61.9l-9.26-11.18h1.84V26h-4.65zm24.07-3.72l-.26-5.33 7.22-7.75h5.23l-7.2 7.8-2.64 2.76-2.35 2.52zM69.63 26V9.2h4.7V26h-4.7zm11.28 0l-5.47-6.94 3.1-3.3L86.44 26H80.9z" fill="#333"/>
  </svg>
</svg>
