<svg xmlns="http://www.w3.org/2000/svg" viewBox="0 0 16 16"><path fill-rule="evenodd" clip-rule="evenodd" d="M5.66 3.88l.23 2.79h4.22l.23-2.8a2.35 2.35 0 1 0-4.68 0zm5.78 2.79l.23-2.68a3.68 3.68 0 1 0-7.34 0l.23 2.68H0L.19 8l.82 5.71A2.67 2.67 0 0 0 3.65 16h8.7c1.33 0 2.46-.98 2.64-2.29L15.81 8 16 6.67H11.45zM11.34 8h-.06l-.22 2.67h3.02L14.46 8h-3.13zm-1.4 0H6.06l.22 2.67h3.44L9.94 8zM4.72 8H1.54l.38 2.67h3.02L4.72 8zm1.9 6.67L6.38 12h3.22l-.22 2.67H6.6zM10.94 12l-.23 2.67h1.63c.67 0 1.23-.5 1.32-1.15L13.9 12h-2.94zm-5.9 0l.23 2.67H3.65c-.67 0-1.23-.5-1.32-1.15L2.1 12h2.94z" fill="#333"/></svg>
